<svg id="Capa_1" enable-background="new 0 0 497.803 497.803" height="512" viewBox="0 0 497.803 497.803" width="512" xmlns="http://www.w3.org/2000/svg"><g><path d="m461.252 212.351c0 93.915-136.174 227.47-190.428 276.953-12.424 11.331-31.423 11.331-43.846 0-54.253-49.483-190.427-183.038-190.427-276.953 0-117.278 95.072-212.351 212.35-212.351s212.351 95.073 212.351 212.351z" fill="#f47c7c"/><path d="m172.525 226.601c0-101.116 70.678-185.716 165.324-207.116-27.058-12.499-57.185-19.485-88.948-19.485-117.278 0-212.35 95.073-212.35 212.351 0 93.916 136.174 227.47 190.428 276.954 12.424 11.331 31.423 11.331 43.846 0 10.473-9.553 24.006-22.248 39.016-37.177-61.109-62.832-137.316-155.269-137.316-225.527z" fill="#ee6161"/><g id="XMLID_424_"><g><path d="m248.901 55.271c-86.75 0-157.08 70.33-157.08 157.08 0 23.13 5 45.1 13.99 64.87l102.123 18.87 150.899-5.377 44.508-49.542c1.73-9.34 2.64-18.97 2.64-28.82 0-86.751-70.33-157.081-157.08-157.081z" fill="#dff6fd"/><path d="m248.911 55.268c-86.75 0-157.08 70.33-157.08 157.08 0 23.13 5 45.1 13.99 64.87l84.042 15.529c-10.783-23.085-17.329-45.569-17.329-66.149 0-70.146 34.007-132.34 86.44-171.004-3.332-.212-6.677-.326-10.063-.326z" fill="#99e6fc"/><path d="m352.551 201.811c-4.3-3.44-10.43-3.39-14.68.12l-42.05 34.83s-59.451 39.779-57.86 39.314 92.783 50.963 92.783 50.963l46.987-24.798c12.56-17.97 21.46-38.68 25.61-61.07z" fill="#97da7b"/><path d="m295.821 236.761 81.91 65.48c-28.39 40.62-75.51 67.19-128.83 67.19-63.62 0-118.4-37.82-143.09-92.21l110.89-91.83c4.25-3.51 10.38-3.57 14.68-.13z" fill="#ade194"/><path d="m172.525 226.601c0-1.56.027-3.124.06-4.677l-66.774 55.296c23.203 51.115 72.99 87.595 131.705 91.804-36.29-47.846-64.991-99.313-64.991-142.423z" fill="#97da7b"/></g></g><circle cx="295.819" cy="145.434" fill="#fef056" r="22.579"/></g></svg>